<svg width="32" height="33" viewBox="0 0 32 33" fill="none" xmlns="http://www.w3.org/2000/svg">
<path d="M16 31.5C24.2843 31.5 31 24.7843 31 16.5C31 8.21573 24.2843 1.5 16 1.5C7.71573 1.5 1 8.21573 1 16.5C1 24.7843 7.71573 31.5 16 31.5Z" stroke="white" stroke-width="2" stroke-miterlimit="10" stroke-linecap="round" stroke-linejoin="round"/>
<path d="M16 7.43564V3.68738" stroke="white" stroke-width="2" stroke-miterlimit="10" stroke-linecap="round" stroke-linejoin="round"/>
<path d="M16 29.312V25.5637" stroke="white" stroke-width="2" stroke-miterlimit="10" stroke-linecap="round" stroke-linejoin="round"/>
<path d="M25.064 16.4998H28.8123" stroke="white" stroke-width="2" stroke-miterlimit="10" stroke-linecap="round" stroke-linejoin="round"/>
<path d="M3.1875 16.4998H6.9358" stroke="white" stroke-width="2" stroke-miterlimit="10" stroke-linecap="round" stroke-linejoin="round"/>
<path d="M20.9087 21.0948L16 16.5L25.5765 8.0542" stroke="white" stroke-width="2" stroke-miterlimit="10" stroke-linecap="round" stroke-linejoin="round"/>
<path d="M22.406 5.73509C22.5887 5.73509 22.7368 5.58698 22.7368 5.40429C22.7368 5.22159 22.5887 5.07349 22.406 5.07349C22.2233 5.07349 22.0752 5.22159 22.0752 5.40429C22.0752 5.58698 22.2233 5.73509 22.406 5.73509Z" fill="white"/>
<path d="M9.59351 27.9264C9.77621 27.9264 9.92432 27.7783 9.92432 27.5956C9.92432 27.4129 9.77621 27.2648 9.59351 27.2648C9.4108 27.2648 9.2627 27.4129 9.2627 27.5956C9.2627 27.7783 9.4108 27.9264 9.59351 27.9264Z" fill="white"/>
<path d="M27.0959 10.4241C27.2786 10.4241 27.4267 10.2759 27.4267 10.0933C27.4267 9.91056 27.2786 9.76245 27.0959 9.76245C26.9132 9.76245 26.7651 9.91056 26.7651 10.0933C26.7651 10.2759 26.9132 10.4241 27.0959 10.4241Z" fill="white"/>
<path d="M4.90454 23.2366C5.08724 23.2366 5.23535 23.0885 5.23535 22.9058C5.23535 22.7231 5.08724 22.575 4.90454 22.575C4.72184 22.575 4.57373 22.7231 4.57373 22.9058C4.57373 23.0885 4.72184 23.2366 4.90454 23.2366Z" fill="white"/>
<path d="M22.406 27.9264C22.5887 27.9264 22.7368 27.7783 22.7368 27.5956C22.7368 27.4129 22.5887 27.2648 22.406 27.2648C22.2233 27.2648 22.0752 27.4129 22.0752 27.5956C22.0752 27.7783 22.2233 27.9264 22.406 27.9264Z" fill="white"/>
<path d="M9.59349 5.73509C9.77618 5.73509 9.92428 5.58698 9.92428 5.40429C9.92428 5.22159 9.77618 5.07349 9.59349 5.07349C9.41079 5.07349 9.2627 5.22159 9.2627 5.40429C9.2627 5.58698 9.41079 5.73509 9.59349 5.73509Z" fill="white"/>
<path d="M27.0959 23.2366C27.2786 23.2366 27.4267 23.0885 27.4267 22.9058C27.4267 22.7231 27.2786 22.575 27.0959 22.575C26.9132 22.575 26.7651 22.7231 26.7651 22.9058C26.7651 23.0885 26.9132 23.2366 27.0959 23.2366Z" fill="white"/>
<path d="M4.90454 10.4241C5.08724 10.4241 5.23535 10.2759 5.23535 10.0933C5.23535 9.91056 5.08724 9.76245 4.90454 9.76245C4.72184 9.76245 4.57373 9.91056 4.57373 10.0933C4.57373 10.2759 4.72184 10.4241 4.90454 10.4241Z" fill="white"/>
</svg>
