<svg width="65" height="65" viewBox="0 0 65 65" fill="none" xmlns="http://www.w3.org/2000/svg">
<rect width="65" height="65" />
<path d="M32.5 55C44.9264 55 55 44.9264 55 32.5C55 20.0736 44.9264 10 32.5 10C20.0736 10 10 20.0736 10 32.5C10 44.9264 20.0736 55 32.5 55Z" stroke="#352A58" stroke-width="2" stroke-miterlimit="10" stroke-linecap="round" stroke-linejoin="round"/>
<path d="M32.5 18.9036V13.2812" stroke="#352A58" stroke-width="2" stroke-miterlimit="10" stroke-linecap="round" stroke-linejoin="round"/>
<path d="M32.5 51.7182V46.0957" stroke="#352A58" stroke-width="2" stroke-miterlimit="10" stroke-linecap="round" stroke-linejoin="round"/>
<path d="M46.0962 32.4995H51.7186" stroke="#352A58" stroke-width="2" stroke-miterlimit="10" stroke-linecap="round" stroke-linejoin="round"/>
<path d="M13.2812 32.4995H18.9037" stroke="#352A58" stroke-width="2" stroke-miterlimit="10" stroke-linecap="round" stroke-linejoin="round"/>
<path d="M39.863 39.392L32.5 32.4997L46.8647 19.8311" stroke="#352A58" stroke-width="2" stroke-miterlimit="10" stroke-linecap="round" stroke-linejoin="round"/>
<path d="M42.109 16.3528C42.383 16.3528 42.6052 16.1306 42.6052 15.8566C42.6052 15.5825 42.383 15.3604 42.109 15.3604C41.8349 15.3604 41.6128 15.5825 41.6128 15.8566C41.6128 16.1306 41.8349 16.3528 42.109 16.3528Z" fill="#352A58"/>
<path d="M22.8903 49.6399C23.1643 49.6399 23.3865 49.4178 23.3865 49.1437C23.3865 48.8696 23.1643 48.6475 22.8903 48.6475C22.6162 48.6475 22.394 48.8696 22.394 49.1437C22.394 49.4178 22.6162 49.6399 22.8903 49.6399Z" fill="#352A58"/>
<path d="M49.1436 23.386C49.4177 23.386 49.6398 23.1638 49.6398 22.8898C49.6398 22.6157 49.4177 22.3936 49.1436 22.3936C48.8696 22.3936 48.6475 22.6157 48.6475 22.8898C48.6475 23.1638 48.8696 23.386 49.1436 23.386Z" fill="#352A58"/>
<path d="M15.8566 42.6048C16.1306 42.6048 16.3528 42.3826 16.3528 42.1086C16.3528 41.8345 16.1306 41.6123 15.8566 41.6123C15.5825 41.6123 15.3604 41.8345 15.3604 42.1086C15.3604 42.3826 15.5825 42.6048 15.8566 42.6048Z" fill="#352A58"/>
<path d="M42.109 49.6399C42.383 49.6399 42.6052 49.4178 42.6052 49.1437C42.6052 48.8696 42.383 48.6475 42.109 48.6475C41.8349 48.6475 41.6128 48.8696 41.6128 49.1437C41.6128 49.4178 41.8349 49.6399 42.109 49.6399Z" fill="#352A58"/>
<path d="M22.8902 16.3528C23.1643 16.3528 23.3864 16.1306 23.3864 15.8566C23.3864 15.5825 23.1643 15.3604 22.8902 15.3604C22.6162 15.3604 22.394 15.5825 22.394 15.8566C22.394 16.1306 22.6162 16.3528 22.8902 16.3528Z" fill="#352A58"/>
<path d="M49.1436 42.6048C49.4177 42.6048 49.6398 42.3826 49.6398 42.1086C49.6398 41.8345 49.4177 41.6123 49.1436 41.6123C48.8696 41.6123 48.6475 41.8345 48.6475 42.1086C48.6475 42.3826 48.8696 42.6048 49.1436 42.6048Z" fill="#352A58"/>
<path d="M15.8566 23.386C16.1306 23.386 16.3528 23.1638 16.3528 22.8898C16.3528 22.6157 16.1306 22.3936 15.8566 22.3936C15.5825 22.3936 15.3604 22.6157 15.3604 22.8898C15.3604 23.1638 15.5825 23.386 15.8566 23.386Z" fill="#352A58"/>
</svg>
