<svg width="32" height="32" viewBox="0 0 32 32" fill="none" xmlns="http://www.w3.org/2000/svg">
<path d="M18.4895 15.8289C18.4895 15.8289 18.4488 5.82033 18.4488 3.58409C18.4488 0.259166 13.7015 0.0188452 13.7015 3.58795L13.6811 15.8453L10.5295 12.7076C10.5295 12.7076 8.16602 10.3546 6.19614 12.3158C4.22626 14.2769 6.39293 16.4331 6.39293 16.4331L16.0436 26.0411L25.4975 16.629C25.4975 16.629 27.8193 14.1862 25.8174 12.1922C23.8155 10.1982 21.4598 12.6738 21.4598 12.6738L18.4895 15.8289Z" stroke="#352A58" stroke-width="2" stroke-miterlimit="10" stroke-linecap="round" stroke-linejoin="round"/>
<path d="M31 21.085V26.5737C31 29.0185 29.1067 30.9999 26.6511 30.9999H5.44581C2.99024 30.9989 1 29.0175 1 26.5728V21.085" stroke="#352A58" stroke-width="2" stroke-miterlimit="10" stroke-linecap="round" stroke-linejoin="round"/>
</svg>
