<svg width="65" height="65" viewBox="0 0 65 65" fill="none" xmlns="http://www.w3.org/2000/svg">
<rect width="65" height="65"/>
<path d="M32.3686 54.9003C44.8125 54.9003 54.9003 44.8125 54.9003 32.3686C54.9003 19.9247 44.8125 9.83691 32.3686 9.83691C19.9247 9.83691 9.83691 19.9247 9.83691 32.3686C9.83691 44.8125 19.9247 54.9003 32.3686 54.9003Z" stroke="#1D1046" stroke-width="2" stroke-miterlimit="10" stroke-linecap="round" stroke-linejoin="round"/>
<path d="M32.4648 48.4174C41.3283 48.4174 48.5136 41.2321 48.5136 32.3686C48.5136 23.5051 41.3283 16.3198 32.4648 16.3198C23.6013 16.3198 16.416 23.5051 16.416 32.3686C16.416 41.2321 23.6013 48.4174 32.4648 48.4174Z" stroke="#1D1046" stroke-width="2" stroke-miterlimit="10" stroke-linecap="round" stroke-linejoin="round"/>
<path d="M32.515 35.8742C34.3702 35.8742 35.8742 34.3702 35.8742 32.515C35.8742 30.6597 34.3702 29.1558 32.515 29.1558C30.6597 29.1558 29.1558 30.6597 29.1558 32.515C29.1558 34.3702 30.6597 35.8742 32.515 35.8742Z" stroke="#1D1046" stroke-width="2" stroke-miterlimit="10" stroke-linecap="round" stroke-linejoin="round"/>
<path d="M43.5483 32.3687H62.7375" stroke="#1D1046" stroke-width="2" stroke-miterlimit="10" stroke-linecap="round" stroke-linejoin="round"/>
<path d="M21.4797 32.3687H2" stroke="#1D1046" stroke-width="2" stroke-miterlimit="10" stroke-linecap="round" stroke-linejoin="round"/>
<path d="M32.3687 43.5483V62.7375" stroke="#1D1046" stroke-width="2" stroke-miterlimit="10" stroke-linecap="round" stroke-linejoin="round"/>
<path d="M32.3687 21.4797V2" stroke="#1D1046" stroke-width="2" stroke-miterlimit="10" stroke-linecap="round" stroke-linejoin="round"/>
</svg>
